<?xml version="1.0" encoding="UTF-8" standalone="no"?>
<svg
   xmlns:dc="http://purl.org/dc/elements/1.1/"
   xmlns:cc="http://creativecommons.org/ns#"
   xmlns:rdf="http://www.w3.org/1999/02/22-rdf-syntax-ns#"
   xmlns:svg="http://www.w3.org/2000/svg"
   xmlns="http://www.w3.org/2000/svg"
   xmlns:sodipodi="http://sodipodi.sourceforge.net/DTD/sodipodi-0.dtd"
   xmlns:inkscape="http://www.inkscape.org/namespaces/inkscape"
   version="1.1"
   width="170.6px"
   height="23.7px"
   viewBox="0 0 170.6 23.7"
   id="svg38"
   sodipodi:docname="logo.svg"
   inkscape:version="1.0.2 (e86c8708, 2021-01-15)">
  <metadata
     id="metadata44">
    <rdf:RDF>
      <cc:Work
         rdf:about="">
        <dc:format>image/svg+xml</dc:format>
        <dc:type
           rdf:resource="http://purl.org/dc/dcmitype/StillImage" />
      </cc:Work>
    </rdf:RDF>
  </metadata>
  <defs
     id="defs42" />
  <sodipodi:namedview
     pagecolor="#ffffff"
     bordercolor="#666666"
     borderopacity="1"
     objecttolerance="10"
     gridtolerance="10"
     guidetolerance="10"
     inkscape:pageopacity="0"
     inkscape:pageshadow="2"
     inkscape:window-width="2301"
     inkscape:window-height="846"
     id="namedview40"
     showgrid="false"
     inkscape:zoom="6.430246"
     inkscape:cx="91.36509"
     inkscape:cy="16.871967"
     inkscape:window-x="1502"
     inkscape:window-y="599"
     inkscape:window-maximized="0"
     inkscape:current-layer="g36" />
  <g
     fill="white"
     id="g36">
    <!-- U -->
    <!-- l -->
    <!-- t -->
    <!-- i -->
    <!-- m -->
    <!-- a -->
    <!-- k -->
    <!-- e -->
    <!-- r -->
    <!-- C -->
    <path
       d="m 130.15479,2.7003645 c -1.4,0 -2.6,0.3000001 -3.6,0.9000001 -1,0.5999999 -1.8,1.4999999 -2.3,2.5999999 -0.5,1.1000001 -0.8,2.4000001 -0.8,3.9000005 0,1.5 0.2,2.9 0.7,4 0.5,1.1 1.2,2 2.2,2.6 1,0.6 2.2,0.9 3.6,0.9 0.8,0 1.6,-0.1 2.3,-0.2 0.7,-0.1 1.4,-0.3 2,-0.5 v 1.2 c -0.6,0.2 -1.2,0.4 -2,0.5 -0.8,0.1 -1.5,0.2 -2.5,0.2 -1.7,0 -3.2,-0.4 -4.3,-1.1 -1.2,-0.7 -2,-1.8 -2.6,-3.1 -0.6,-1.3 -0.9,-2.9 -0.9,-4.7000004 0,-1.7 0.3,-3.2 1,-4.5 0.6,-1.3 1.6,-2.4 2.8,-3.1 1.2,-0.7 2.7,-1.1 4.4,-1.1 1.7,0 3.2,0.3 4.5,1 l -0.5,1.4 c -1.3,-0.6 -2.6,-0.9000001 -4,-0.9000001 z"
       id="path28"
       style="fill:#ff6600;stroke-width:0.999999" />
    <!-- u -->
    <path
       d="M 147.55479,6.1003646 V 18.900365 h -1.1 l -0.2,-2.2 h -0.1 c -0.4,0.7 -0.9,1.3 -1.6,1.7 -0.7,0.4 -1.6,0.7 -2.7,0.7 -3,0 -4.5,-1.6 -4.5,-4.7 V 6.1003646 h 1.4 v 8.3000004 c 0,1.2 0.3,2.1 0.8,2.7 0.5,0.6 1.4,0.9 2.4,0.9 2.8,0 4.2,-1.6 4.2,-4.9 V 6.1003646 Z"
       id="path30"
       style="fill:#ff6600;stroke-width:0.999999" />
    <!-- r -->
    <path
       d="m 157.05479,5.9003647 c 0.7,0 1.2,0.1 1.7,0.1999999 l -0.2,1.2 c -0.3,-0.1 -0.5,-0.1 -0.8,-0.1 -0.3,0 -0.5,0 -0.8,0 -1.2,0 -2.1,0.3999999 -2.8,1.3 -0.7,0.9 -1,2.0000004 -1,3.4000004 v 7 h -1.4 V 6.1003646 h 1.2 l 0.1,2.4000001 h 0.1 c 0.3,-0.7000001 0.8,-1.3 1.5,-1.8000001 0.7,-0.5000001 1.4,-0.7999999 2.4,-0.7999999 z"
       id="path32"
       style="fill:#ff6600;stroke-width:0.999999" />
    <!-- a -->
    <path
       d="m 165.35479,5.9003647 c 1.4,0 2.5,0.3999999 3.2,1.1 0.7,0.6999998 1.1,1.7999999 1.1,3.3000003 v 8.6 h -1 l -0.3,-2.2 v 0 c -0.4,0.7 -1,1.3 -1.7,1.7 -0.7,0.4 -1.6,0.7 -2.8,0.7 -1.2,0 -2.2,-0.3 -2.9,-0.9 -0.7,-0.6 -1.1,-1.5 -1.1,-2.7 0,-1.3 0.5,-2.2 1.5,-2.9 1,-0.7 2.5,-1 4.5,-1.1 l 2.3,-0.1 v -0.9 c 0,-1.3000004 -0.3,-2.2000003 -0.8,-2.7000004 -0.5,-0.5 -1.2,-0.7999999 -2.2,-0.7999999 -0.7,0 -1.3,0.1 -1.9,0.2999999 -0.6,0.1999999 -1.2,0.3999999 -1.8,0.7 l -0.4,-1.1 c 0.6,-0.3000001 1.2,-0.6 2,-0.7000001 0.7,-0.1999999 1.5,-0.2999998 2.3,-0.2999998 z m 2.9,6.5000003 -2.2,0.1 c -1.6,0.1 -2.8,0.3 -3.6,0.8 -0.8,0.5 -1.2,1.2 -1.2,2.2 0,0.8 0.2,1.4 0.7,1.8 0.5,0.4 1.2,0.6 2,0.6 1.3,0 2.4,-0.4 3.1,-1.1 0.7,-0.8 1.1,-1.8 1.1,-3.2 v -1.2 z"
       id="path34"
       style="fill:#ff6600;stroke-width:0.999999" />
    <text
       xml:space="preserve"
       style="font-style:normal;font-variant:normal;font-weight:800;font-stretch:normal;font-size:22.3436px;line-height:1.25;font-family:'Apple SD Gothic Neo';-inkscape-font-specification:'Apple SD Gothic Neo, Ultra-Bold';font-variant-ligatures:normal;font-variant-caps:normal;font-variant-numeric:normal;font-variant-east-asian:normal;fill:#ff6600;fill-opacity:1;stroke:none;stroke-width:1.8759"
       x="1.0438889"
       y="17.696674"
       id="text48"
       transform="scale(0.92237871,1.0841534)"><tspan
         sodipodi:role="line"
         id="tspan46"
         x="1.0438889"
         y="17.696674"
         style="font-style:normal;font-variant:normal;font-weight:800;font-stretch:normal;font-size:22.3436px;font-family:'Apple SD Gothic Neo';-inkscape-font-specification:'Apple SD Gothic Neo, Ultra-Bold';font-variant-ligatures:normal;font-variant-caps:normal;font-variant-numeric:normal;font-variant-east-asian:normal;fill:#ff6600;stroke-width:1.8759">Kentstrapper</tspan></text>
  </g>
</svg>
